<svg aria-hidden="true" style="position:absolute;width:0;height:0" xmlns="http://www.w3.org/2000/svg" overflow="hidden"><defs><symbol id="icon-search" viewBox="0 0 32 32"><path d="M19.427 20.427a8.5 8.5 0 112-2l5.585 5.585c.55.55.546 1.431 0 1.976l-.023.023a1.398 1.398 0 01-1.976 0l-5.585-5.585zM14.5 20a6.5 6.5 0 100-13 6.5 6.5 0 000 13z"/></symbol><symbol id="icon-menu" viewBox="0 0 20 20"><path d="M16.4 9H3.6c-.552 0-.6.447-.6 1s.048 1 .6 1h12.8c.552 0 .6-.447.6-1s-.048-1-.6-1zm0 4H3.6c-.552 0-.6.447-.6 1s.048 1 .6 1h12.8c.552 0 .6-.447.6-1s-.048-1-.6-1zM3.6 7h12.8c.552 0 .6-.447.6-1s-.048-1-.6-1H3.6c-.552 0-.6.447-.6 1s.048 1 .6 1z"/></symbol><symbol id="icon-shopping-basket" viewBox="0 0 32 28"><path d="M30 12c1.109 0 2 .891 2 2s-.891 2-2 2h-.234l-1.797 10.344c-.172.953-1 1.656-1.969 1.656H6a2.009 2.009 0 01-1.969-1.656L2.234 16H2c-1.109 0-2-.891-2-2s.891-2 2-2h28zM7.578 24.5a1.01 1.01 0 00.922-1.078l-.5-6.5c-.047-.547-.531-.969-1.078-.922s-.969.531-.922 1.078l.5 6.5c.047.516.484.922 1 .922h.078zm6.422-1V17c0-.547-.453-1-1-1s-1 .453-1 1v6.5c0 .547.453 1 1 1s1-.453 1-1zm6 0V17c0-.547-.453-1-1-1s-1 .453-1 1v6.5c0 .547.453 1 1 1s1-.453 1-1zm5.5.078l.5-6.5c.047-.547-.375-1.031-.922-1.078s-1.031.375-1.078.922l-.5 6.5a1.01 1.01 0 00.922 1.078h.078c.516 0 .953-.406 1-.922zM7.438 4.562L5.985 11H3.922L5.5 4.109A3.966 3.966 0 019.391 1H12c0-.547.453-1 1-1h6c.547 0 1 .453 1 1h2.609A3.966 3.966 0 0126.5 4.109L28.078 11h-2.063l-1.453-6.438a2.004 2.004 0 00-1.953-1.563H20c0 .547-.453 1-1 1h-6c-.547 0-1-.453-1-1H9.391c-.938 0-1.734.641-1.953 1.563z"/></symbol><symbol id="icon-user" viewBox="0 0 32 32"><path d="M18 22.082v-1.649c2.203-1.241 4-4.337 4-7.432 0-4.971 0-9-6-9s-6 4.029-6 9c0 3.096 1.797 6.191 4 7.432v1.649C7.216 22.637 2 25.97 2 30h28c0-4.03-5.216-7.364-12-7.918z"/></symbol><symbol id="icon-cross" viewBox="0 0 32 32"><path d="M31.708 25.708L22 16l9.708-9.708a1 1 0 000-1.414L27.122.292a1 1 0 00-1.414-.001L16 9.999 6.292.291a.998.998 0 00-1.414.001L.292 4.878a1 1 0 000 1.414L10 16 .292 25.708a.999.999 0 000 1.414l4.586 4.586a1 1 0 001.414 0L16 22l9.708 9.708a1 1 0 001.414 0l4.586-4.586a.999.999 0 000-1.414z"/></symbol><symbol id="icon-arrow-right2" viewBox="0 0 32 32"><path d="M19.414 27.414l10-10a2 2 0 000-2.828l-10-10a2 2 0 10-2.828 2.828L23.172 14H4a2 2 0 100 4h19.172l-6.586 6.586c-.39.39-.586.902-.586 1.414s.195 1.024.586 1.414a2 2 0 002.828 0z"/></symbol><symbol id="icon-arrow-left2" viewBox="0 0 32 32"><path d="M12.586 27.414l-10-10a2 2 0 010-2.828l10-10a2 2 0 112.828 2.828L8.828 14H28a2 2 0 110 4H8.828l6.586 6.586c.39.39.586.902.586 1.414s-.195 1.024-.586 1.414a2 2 0 01-2.828 0z"/></symbol><symbol id="icon-star-empty" viewBox="0 0 32 32"><path d="M32 12.408l-11.056-1.607L16 .783l-4.944 10.018L0 12.408l8 7.798-1.889 11.011L16 26.018l9.889 5.199L24 20.206l8-7.798zM16 23.547l-6.983 3.671 1.334-7.776-5.65-5.507 7.808-1.134 3.492-7.075 3.492 7.075 7.807 1.134-5.65 5.507 1.334 7.776-6.983-3.671z"/></symbol><symbol id="icon-star-full" viewBox="0 0 32 32"><path d="M32 12.408l-11.056-1.607L16 .783l-4.944 10.018L0 12.408l8 7.798-1.889 11.011L16 26.018l9.889 5.199L24 20.206l8-7.798z"/></symbol><symbol id="icon-home" viewBox="0 0 20 20"><path d="M18.672 11H17v6c0 .445-.194 1-1 1h-4v-6H8v6H4c-.806 0-1-.555-1-1v-6H1.328c-.598 0-.47-.324-.06-.748L9.292 2.22c.195-.202.451-.302.708-.312.257.01.513.109.708.312l8.023 8.031c.411.425.539.749-.059.749z"/></symbol><symbol id="icon-balance-scale" viewBox="0 0 34 28"><path d="M27 7l-6 11h12zM7 7L1 18h12zm12.828-3A3.025 3.025 0 0118 5.828V26h9.5c.281 0 .5.219.5.5v1c0 .281-.219.5-.5.5h-21a.494.494 0 01-.5-.5v-1c0-.281.219-.5.5-.5H16V5.828A3.025 3.025 0 0114.172 4H6.5a.494.494 0 01-.5-.5v-1c0-.281.219-.5.5-.5h7.672C14.594.828 15.688 0 17 0s2.406.828 2.828 2H27.5c.281 0 .5.219.5.5v1c0 .281-.219.5-.5.5h-7.672zM17 4.25c.688 0 1.25-.562 1.25-1.25S17.688 1.75 17 1.75s-1.25.562-1.25 1.25.562 1.25 1.25 1.25zM34 18c0 3.219-4.453 4.5-7 4.5s-7-1.281-7-4.5c0-.609 5.453-10.266 6.125-11.484.172-.313.516-.516.875-.516s.703.203.875.516C28.547 7.735 34 17.391 34 18zm-20 0c0 3.219-4.453 4.5-7 4.5S0 21.219 0 18c0-.609 5.453-10.266 6.125-11.484C6.297 6.203 6.641 6 7 6s.703.203.875.516C8.547 7.735 14 17.391 14 18z"/></symbol><symbol id="icon-heart-o" viewBox="0 0 28 28"><path d="M26 9.312c0-4.391-2.969-5.313-5.469-5.313-2.328 0-4.953 2.516-5.766 3.484-.375.453-1.156.453-1.531 0-.812-.969-3.437-3.484-5.766-3.484-2.5 0-5.469.922-5.469 5.313 0 2.859 2.891 5.516 2.922 5.547l9.078 8.75 9.063-8.734C23.109 14.828 26 12.172 26 9.312zm2 0c0 3.75-3.437 6.891-3.578 7.031l-9.734 9.375c-.187.187-.438.281-.688.281s-.5-.094-.688-.281l-9.75-9.406c-.125-.109-3.563-3.25-3.563-7 0-4.578 2.797-7.313 7.469-7.313 2.734 0 5.297 2.156 6.531 3.375 1.234-1.219 3.797-3.375 6.531-3.375 4.672 0 7.469 2.734 7.469 7.313z"/></symbol><symbol id="icon-cart-plus" viewBox="0 0 26 28"><path d="M19 11c0-.547-.453-1-1-1h-2V8c0-.547-.453-1-1-1s-1 .453-1 1v2h-2c-.547 0-1 .453-1 1s.453 1 1 1h2v2c0 .547.453 1 1 1s1-.453 1-1v-2h2c.547 0 1-.453 1-1zm-9 13c0 1.109-.891 2-2 2s-2-.891-2-2 .891-2 2-2 2 .891 2 2zm14 0c0 1.109-.891 2-2 2s-2-.891-2-2 .891-2 2-2 2 .891 2 2zm2-17v8c0 .5-.375.938-.891 1L8.797 17.906C8.86 18.25 9 18.64 9 19s-.219.688-.375 1H23c.547 0 1 .453 1 1s-.453 1-1 1H7c-.547 0-1-.453-1-1 0-.484.734-1.687.953-2.141L4.187 6H1c-.547 0-1-.453-1-1s.453-1 1-1h4c1.062 0 1.078 1.25 1.234 2H25c.547 0 1 .453 1 1z"/></symbol><symbol id="icon-credit-card" viewBox="0 0 32 32"><path d="M29 4H3C1.35 4 0 5.35 0 7v18c0 1.65 1.35 3 3 3h26c1.65 0 3-1.35 3-3V7c0-1.65-1.35-3-3-3zM3 6h26c.542 0 1 .458 1 1v3H2V7c0-.542.458-1 1-1zm26 20H3c-.542 0-1-.458-1-1v-9h28v9c0 .542-.458 1-1 1zM4 20h2v4H4zm4 0h2v4H8zm4 0h2v4h-2z"/></symbol><symbol id="icon-airplane" viewBox="0 0 20 20"><path d="M8.4 12H2.8L1 15H0V5h1l1.8 3h5.6L6 0h2l4.8 8H18a2 2 0 110 4h-5.2L8 20H6l2.4-8z"/></symbol><symbol id="icon-credit-card-alt" viewBox="0 0 36 28"><path d="M0 23.5V14h36v9.5c0 1.375-1.125 2.5-2.5 2.5h-31A2.507 2.507 0 010 23.5zM10 20v2h6v-2h-6zm-6 0v2h4v-2H4zM33.5 2C34.875 2 36 3.125 36 4.5V8H0V4.5C0 3.125 1.125 2 2.5 2h31z"/></symbol><symbol id="icon-credit-card" viewBox="0 0 30 28"><path d="M27.5 2C28.875 2 30 3.125 30 4.5v19c0 1.375-1.125 2.5-2.5 2.5h-25A2.507 2.507 0 010 23.5v-19C0 3.125 1.125 2 2.5 2h25zm-25 2c-.266 0-.5.234-.5.5V8h26V4.5c0-.266-.234-.5-.5-.5h-25zm25 20c.266 0 .5-.234.5-.5V14H2v9.5c0 .266.234.5.5.5h25zM4 22v-2h4v2H4zm6 0v-2h6v2h-6z"/></symbol><symbol id="icon-headphones" viewBox="0 0 32 32"><path d="M9 18H7v14h2c.55 0 1-.45 1-1V19c0-.55-.45-1-1-1zm14 0c-.55 0-1 .45-1 1v12c0 .55.45 1 1 1h2V18h-2z"/><path d="M32 16c0-8.837-7.163-16-16-16S0 7.163 0 16c0 1.919.338 3.759.958 5.464A7.003 7.003 0 006 31.929V18.072a6.957 6.957 0 00-2.742 1.012A13.09 13.09 0 013 16.5c0-7.18 5.82-13 13-13s13 5.82 13 13c0 .885-.088 1.749-.257 2.584A6.963 6.963 0 0026 18.071v13.858a7.001 7.001 0 005.042-10.465c.62-1.705.958-3.545.958-5.465z"/></symbol><symbol id="icon-paperplane" viewBox="0 0 32 32"><path d="M31.543.16a1.002 1.002 0 00-1.098.008l-30 20a.995.995 0 00-.439.936.995.995 0 00.623.824l7.824 3.131 3.679 6.438a1 1 0 00.857.504H13c.351 0 .677-.186.857-.486l2.077-3.463 9.695 3.877a.992.992 0 00.861-.058c.264-.148.445-.408.496-.707l5-30A1.002 1.002 0 0031.543.16zM3.136 20.777L26.311 5.326 9.461 23.363c-.089-.053-.168-.123-.266-.162l-6.059-2.424zm7.053 3.289l-.007-.01L29.125 3.781 12.976 28.943l-2.787-4.877zm15.028 5.543l-8.541-3.416a1.987 1.987 0 00-.623-.119L29.205 5.686l-3.988 23.923z"/></symbol><symbol id="icon-phone" viewBox="0 0 32 32"><path d="M22 20c-2 2-2 4-4 4s-4-2-6-4-4-4-4-6 2-2 4-4-4-8-6-8-6 6-6 6c0 4 4.109 12.109 8 16s12 8 16 8c0 0 6-4 6-6s-6-8-8-6z"/></symbol><symbol id="icon-envelop" viewBox="0 0 32 32"><path d="M29 4H3C1.35 4 0 5.35 0 7v20c0 1.65 1.35 3 3 3h26c1.65 0 3-1.35 3-3V7c0-1.65-1.35-3-3-3zM12.461 17.199L4 23.789V8.113l8.461 9.086zM5.512 8h20.976L16 15.875 5.512 8zm7.278 9.553L16 21l3.21-3.447L25.79 26H6.211l6.58-8.447zm6.749-.354L28 8.113v15.676l-8.461-6.59z"/></symbol><symbol id="icon-location" viewBox="0 0 32 32"><path d="M16 0C10.477 0 6 4.477 6 10c0 10 10 22 10 22s10-12 10-22c0-5.523-4.477-10-10-10zm0 16a6 6 0 110-12 6 6 0 010 12z"/></symbol><symbol id="icon-eye" viewBox="0 0 32 32"><path d="M16 6C9.021 6 2.972 10.064 0 16c2.972 5.936 9.021 10 16 10s13.027-4.064 16-10c-2.972-5.936-9.021-10-16-10zm7.889 5.303A15.212 15.212 0 0128.559 16a15.223 15.223 0 01-4.67 4.697C21.527 22.204 18.799 23 16 23s-5.527-.796-7.889-2.303A15.212 15.212 0 013.441 16a15.223 15.223 0 015.041-4.925 8 8 0 1015.036 0c.124.074.248.15.371.228zM16 13a3 3 0 11-6 0 3 3 0 016 0z"/></symbol><symbol id="icon-loop2" viewBox="0 0 32 32"><path d="M27.802 5.197A15.958 15.958 0 0015.999 0c-8.837 0-16 7.163-16 16h3c0-7.18 5.82-13 13-13 3.844 0 7.298 1.669 9.678 4.322L20.999 12h11V1l-4.198 4.197zM29 16c0 7.18-5.82 13-13 13a12.965 12.965 0 01-9.678-4.322L11 20H0v11l4.197-4.197A15.958 15.958 0 0016 32c8.837 0 16-7.163 16-16h-3z"/></symbol><symbol id="icon-arrow-up" viewBox="0 0 32 32"><path d="M16 1L1 16h9v16h12V16h9z"/></symbol><symbol id="icon-truck" viewBox="0 0 32 32"><path d="M32 18l-4-8h-6V6c0-1.1-.9-2-2-2H2C.9 4 0 4.9 0 6v16l2 2h2.536a4 4 0 106.928 0h11.073a4 4 0 106.926 0H32v-6zm-10 0v-6h4.146l3 6H22z"/></symbol><symbol id="icon-crop" viewBox="0 0 32 32"><path d="M26 8l6-6-2-2-6 6H10V0H6v6H0v4h6v16h16v6h4v-6h6v-4h-6V8zm-16 2h10L10 20V10zm2 12l10-10v10H12z"/></symbol><symbol id="icon-envelope-o" viewBox="0 0 28 28"><path d="M26 23.5v-12a8.408 8.408 0 01-1.078 1.031c-2.234 1.719-4.484 3.469-6.656 5.281-1.172.984-2.625 2.188-4.25 2.188h-.031c-1.625 0-3.078-1.203-4.25-2.188-2.172-1.813-4.422-3.563-6.656-5.281A8.411 8.411 0 012.001 11.5v12c0 .266.234.5.5.5h23c.266 0 .5-.234.5-.5zm0-16.422C26 6.687 26.094 6 25.5 6h-23c-.266 0-.5.234-.5.5 0 1.781.891 3.328 2.297 4.438a980.43 980.43 0 016.266 4.953c.828.672 2.328 2.109 3.422 2.109h.031c1.094 0 2.594-1.437 3.422-2.109a946.207 946.207 0 016.266-4.953c1.016-.797 2.297-2.531 2.297-3.859zm2-.578v17c0 1.375-1.125 2.5-2.5 2.5h-23A2.507 2.507 0 010 23.5v-17C0 5.125 1.125 4 2.5 4h23C26.875 4 28 5.125 28 6.5z"/></symbol><symbol id="icon-plus" viewBox="0 0 32 32"><path d="M31 12H20V1a1 1 0 00-1-1h-6a1 1 0 00-1 1v11H1a1 1 0 00-1 1v6a1 1 0 001 1h11v11a1 1 0 001 1h6a1 1 0 001-1V20h11a1 1 0 001-1v-6a1 1 0 00-1-1z"/></symbol><symbol id="icon-minus" viewBox="0 0 32 32"><path d="M0 13v6a1 1 0 001 1h30a1 1 0 001-1v-6a1 1 0 00-1-1H1a1 1 0 00-1 1z"/></symbol><symbol id="icon-trash" viewBox="0 0 32 32"><path d="M29.98 6.819A2.99 2.99 0 0027 4.003h-3V3.001a3 3 0 00-3-3H11a3 3 0 00-3 3v1.001H5a2.99 2.99 0 00-2.981 2.816H2v2.183a2 2 0 002 2v17a4 4 0 004 4h16a4 4 0 004-4v-17a2 2 0 002-2V6.819h-.02zM10 3.002a1 1 0 011-1h10a1 1 0 011 1v1H10v-1zm16 25c0 1.102-.898 2-2 2H8c-1.103 0-2-.898-2-2v-17h20v17zm2-20.001v1H4V7.002a1 1 0 011-1h22a1 1 0 011 1v.999zM9 28.006h2a1 1 0 001-1v-13a1 1 0 00-1-1H9a1 1 0 00-1 1v13a1 1 0 001 1zm0-14.001h2v13H9v-13zm6 14.001h2a1 1 0 001-1v-13a1 1 0 00-1-1h-2a1 1 0 00-1 1v13a1 1 0 001 1zm0-14.001h2v13h-2v-13zm6 14.001h2a1 1 0 001-1v-13a1 1 0 00-1-1h-2a1 1 0 00-1 1v13a1 1 0 001 1zm0-14.001h2v13h-2v-13z"/></symbol></defs></svg>